<?xml version="1.0" encoding="utf-8"?>
<!-- Generator: Adobe Illustrator 20.0.0, SVG Export Plug-In . SVG Version: 6.00 Build 0)  -->
<svg version="1.1" id="Capa_1" xmlns="http://www.w3.org/2000/svg" xmlns:xlink="http://www.w3.org/1999/xlink" x="0px" y="0px"
	 viewBox="0 0 1000 670" style="enable-background:new 0 0 1000 670;" xml:space="preserve">
<style type="text/css">
	.st0{fill-rule:evenodd;clip-rule:evenodd;fill:#C12627;}
</style>
<path class="st0" d="M160.6,478.5l526.2,3.2l163.1-50.2c7-11.4,9.2-50.2,9-58c-0.2-7.8-4-15-4-15c1.4-4.4-0.8-24-2-28
	c-1.2-4-9-16-9-16c3.4-5,1-18.2-1-24c-2-5.8-9-7-9-7c-5.4-9.6-14-18-14-18c-0.2-3.6-3-4-3-4c-15.2-50.6-29-71-29-71
	c-17.2-34.4-91.2-52.4-100-54c-8.8-1.6-26-3-26-3h-3c-155.7-8.3-251.3,14.6-253,15c-3,0.6-7.6,2.2-7.6,2.2
	c-33.5,12.5-89.4,74.8-89.4,74.8s-9.2-2.5-18,5c-8.8,7.5-8,22-8,22v4l-1.4,3.6c-51.5,9.2-61,16-61,16s-7.9,2.1-10.6,2.4
	c-2.7,0.3-13,7-13,7c-10.7,4-16,13.3-18,21c-2,7.7-2,24-2,24c-6.3,0-8,16-8,16c-11,5.3-11,26-11,26c-4,5.3-6,15-6,15s-7.3,7.3-9,15
	c-3.7,26.3-1,37.7,1,44c2,6.3,8.7,16,7,18L160.6,478.5z M315.5,230.1l51-46l-42,70C326.9,237.6,315.5,230.1,315.5,230.1z
	 M341.5,252.1l58-84l53,6l-32,76L341.5,252.1z M522.5,251.1l-74-4c4.9-65.7,30-67,30-67c33.5-0.7,46,22,46,22L522.5,251.1z
	 M710.5,213.1c-20.7,6-15,44-15,44l-3-2l-12-61l35-1l4,17L710.5,213.1z"/>
</svg>
